HIERARCHY
ROOT Character1_Hips
{
  OFFSET -289.603 97.9511 199.898
  CHANNELS 6 Xposition Yposition Zposition Zrotation Xrotation Yrotation
  JOINT Character1_LeftUpLeg
  {
    OFFSET 8.91 -6.27 0
    CHANNELS 3 Zrotation Xrotation Yrotation
    JOINT Character1_LeftLeg
    {
      OFFSET 0 -44.8786 0
      CHANNELS 3 Zrotation Xrotation Yrotation
      JOINT Character1_LeftFoot
      {
        OFFSET 0 -40.701 0
        CHANNELS 3 Zrotation Xrotation Yrotation
        JOINT Character1_LeftToeBase
        {
          OFFSET 0 -6.26232 12.9547
          CHANNELS 3 Zrotation Xrotation Yrotation
          End Site
          {
            OFFSET 0 0 0
          }
        }
        JOINT FootL
        {
          OFFSET 0.33955 -3.96966 6.32777
          CHANNELS 3 Zrotation Xrotation Yrotation
          End Site
          {
            OFFSET 0 0 0
          }
        }
      }
      JOINT LegLBox
      {
        OFFSET 0.33955 -20.2705 0.090831
        CHANNELS 3 Zrotation Xrotation Yrotation
        End Site
        {
          OFFSET 0 0 0
        }
      }
    }
    JOINT UpLegLBox
    {
      OFFSET -0.339774 -23.0643 0.090831
      CHANNELS 3 Zrotation Xrotation Yrotation
      End Site
      {
        OFFSET 0 0 0
      }
    }
  }
  JOINT Character1_RightUpLeg
  {
    OFFSET -8.91 -6.27 0
    CHANNELS 3 Zrotation Xrotation Yrotation
    JOINT Character1_RightLeg
    {
      OFFSET 0 -44.8786 0.000439024
      CHANNELS 3 Zrotation Xrotation Yrotation
      JOINT Character1_RightFoot
      {
        OFFSET 0 -40.701 0
        CHANNELS 3 Zrotation Xrotation Yrotation
        JOINT Character1_RightToeBase
        {
          OFFSET 0 -6.26232 12.9547
          CHANNELS 3 Zrotation Xrotation Yrotation
          End Site
          {
            OFFSET 0 0 0
          }
        }
        JOINT FootRBox
        {
          OFFSET -0.339467 -3.96966 6.32736
          CHANNELS 3 Zrotation Xrotation Yrotation
          End Site
          {
            OFFSET 0 0 0
          }
        }
      }
      JOINT LegRBox
      {
        OFFSET -0.339996 -20.2705 0.090392
        CHANNELS 3 Zrotation Xrotation Yrotation
        End Site
        {
          OFFSET 0 0 0
        }
      }
    }
    JOINT UpLegRBox
    {
      OFFSET 0.340001 -23.0643 0.090831
      CHANNELS 3 Zrotation Xrotation Yrotation
      End Site
      {
        OFFSET 0 0 0
      }
    }
  }
  JOINT Character1_Spine
  {
    OFFSET 0 7 0
    CHANNELS 3 Zrotation Xrotation Yrotation
    JOINT Character1_Spine1
    {
      OFFSET 0 12.6667 0
      CHANNELS 3 Zrotation Xrotation Yrotation
      JOINT Character1_Spine2
      {
        OFFSET 0 12.6667 0
        CHANNELS 3 Zrotation Xrotation Yrotation
        JOINT Character1_LeftShoulder
        {
          OFFSET 7 14.2552 0
          CHANNELS 3 Zrotation Xrotation Yrotation
          JOINT Character1_LeftArm
          {
            OFFSET 10.7073 0 0
            CHANNELS 3 Zrotation Xrotation Yrotation
            JOINT Character1_LeftForeArm
            {
              OFFSET 27.3055 0 0
              CHANNELS 3 Zrotation Xrotation Yrotation
              JOINT Character1_LeftHand
              {
                OFFSET 26.6971 0 0
                CHANNELS 3 Zrotation Xrotation Yrotation
                JOINT Character1_LeftHandThumb1
                {
                  OFFSET 4.34876 -0.798503 4.28243
                  CHANNELS 3 Zrotation Xrotation Yrotation
                  JOINT Character1_LeftHandThumb2
                  {
                    OFFSET 2.51259 -0.536099 0.707454
                    CHANNELS 3 Zrotation Xrotation Yrotation
                    JOINT Character1_LeftHandThumb3
                    {
                      OFFSET 2.54314 0 0
                      CHANNELS 3 Zrotation Xrotation Yrotation
                      JOINT Character1_LeftHandThumb4
                      {
                        OFFSET 2.66675 0 0
                        CHANNELS 3 Zrotation Xrotation Yrotation
                        End Site
                        {
                          OFFSET 0 0 0
                        }
                      }
                    }
                  }
                }
                JOINT Character1_LeftHandIndex1
                {
                  OFFSET 8.82198 0.199729 3.47167
                  CHANNELS 3 Zrotation Xrotation Yrotation
                  JOINT Character1_LeftHandIndex2
                  {
                    OFFSET 4.22532 0 -0.00026266
                    CHANNELS 3 Zrotation Xrotation Yrotation
                    JOINT Character1_LeftHandIndex3
                    {
                      OFFSET 2.65394 0 -0.000165164
                      CHANNELS 3 Zrotation Xrotation Yrotation
                      JOINT Character1_LeftHandIndex4
                      {
                        OFFSET 1.95822 0 -0.000122166
                        CHANNELS 3 Zrotation Xrotation Yrotation
                        End Site
                        {
                          OFFSET 0 0 0
                        }
                      }
                    }
                  }
                }
                JOINT Character1_LeftHandMiddle1
                {
                  OFFSET 8.80988 0.50089 1.30468
                  CHANNELS 3 Zrotation Xrotation Yrotation
                  JOINT Character1_LeftHandMiddle2
                  {
                    OFFSET 4.86325 0 0
                    CHANNELS 3 Zrotation Xrotation Yrotation
                    JOINT Character1_LeftHandMiddle3
                    {
                      OFFSET 2.76524 0 0
                      CHANNELS 3 Zrotation Xrotation Yrotation
                      JOINT Character1_LeftHandMiddle4
                      {
                        OFFSET 2.00563 0 0
                        CHANNELS 3 Zrotation Xrotation Yrotation
                        End Site
                        {
                          OFFSET 0 0 0
                        }
                      }
                    }
                  }
                }
                JOINT Character1_LeftHandRing1
                {
                  OFFSET 8.89376 0.37992 -0.793159
                  CHANNELS 3 Zrotation Xrotation Yrotation
                  JOINT Character1_LeftHandRing2
                  {
                    OFFSET 4.53776 0 -0.000282138
                    CHANNELS 3 Zrotation Xrotation Yrotation
                    JOINT Character1_LeftHandRing3
                    {
                      OFFSET 2.30453 0 -0.000143448
                      CHANNELS 3 Zrotation Xrotation Yrotation
                      JOINT Character1_LeftHandRing4
                      {
                        OFFSET 1.92335 0 -0.00012044
                        CHANNELS 3 Zrotation Xrotation Yrotation
                        End Site
                        {
                          OFFSET 0 0 0
                        }
                      }
                    }
                  }
                }
                JOINT Character1_LeftHandPinky1
                {
                  OFFSET 8.88227 -0.313027 -2.49036
                  CHANNELS 3 Zrotation Xrotation Yrotation
                  JOINT Character1_LeftHandPinky2
                  {
                    OFFSET 3.0441 0 0
                    CHANNELS 3 Zrotation Xrotation Yrotation
                    JOINT Character1_LeftHandPinky3
                    {
                      OFFSET 1.9745 0 0
                      CHANNELS 3 Zrotation Xrotation Yrotation
                      JOINT Character1_LeftHandPinky4
                      {
                        OFFSET 1.66661 0 0
                        CHANNELS 3 Zrotation Xrotation Yrotation
                        End Site
                        {
                          OFFSET 0 0 0
                        }
                      }
                    }
                  }
                }
              }
            }
          }
        }
        JOINT Character1_RightShoulder
        {
          OFFSET -7 14.2552 0
          CHANNELS 3 Zrotation Xrotation Yrotation
          JOINT Character1_RightArm
          {
            OFFSET -10.7073 0 0
            CHANNELS 3 Zrotation Xrotation Yrotation
            JOINT Character1_RightForeArm
            {
              OFFSET -27.3056 0 0
              CHANNELS 3 Zrotation Xrotation Yrotation
              JOINT Character1_RightHand
              {
                OFFSET -26.697 0 0
                CHANNELS 3 Zrotation Xrotation Yrotation
                JOINT Character1_RightHandThumb1
                {
                  OFFSET -4.34838 -0.798498 4.28281
                  CHANNELS 3 Zrotation Xrotation Yrotation
                  JOINT Character1_RightHandThumb2
                  {
                    OFFSET -2.51253 -0.536099 0.707677
                    CHANNELS 3 Zrotation Xrotation Yrotation
                    JOINT Character1_RightHandThumb3
                    {
                      OFFSET -2.54159 0 0.0888203
                      CHANNELS 3 Zrotation Xrotation Yrotation
                      JOINT Character1_RightHandThumb4
                      {
                        OFFSET -2.66512 0 0.0931373
                        CHANNELS 3 Zrotation Xrotation Yrotation
                        End Site
                        {
                          OFFSET 0 0 0
                        }
                      }
                    }
                  }
                }
                JOINT Character1_RightHandIndex1
                {
                  OFFSET -8.82167 0.199734 3.47244
                  CHANNELS 3 Zrotation Xrotation Yrotation
                  JOINT Character1_RightHandIndex2
                  {
                    OFFSET -4.22532 0 0.0001146
                    CHANNELS 3 Zrotation Xrotation Yrotation
                    JOINT Character1_RightHandIndex3
                    {
                      OFFSET -2.65394 0 7.1964e-005
                      CHANNELS 3 Zrotation Xrotation Yrotation
                      JOINT Character1_RightHandIndex4
                      {
                        OFFSET -1.95822 0 5.30971e-005
                        CHANNELS 3 Zrotation Xrotation Yrotation
                        End Site
                        {
                          OFFSET 0 0 0
                        }
                      }
                    }
                  }
                }
                JOINT Character1_RightHandMiddle1
                {
                  OFFSET -8.80977 0.500893 1.30546
                  CHANNELS 3 Zrotation Xrotation Yrotation
                  JOINT Character1_RightHandMiddle2
                  {
                    OFFSET -4.86325 0 0.000131883
                    CHANNELS 3 Zrotation Xrotation Yrotation
                    JOINT Character1_RightHandMiddle3
                    {
                      OFFSET -2.76524 0 7.49843e-005
                      CHANNELS 3 Zrotation Xrotation Yrotation
                      JOINT Character1_RightHandMiddle4
                      {
                        OFFSET -2.00563 0 5.4389e-005
                        CHANNELS 3 Zrotation Xrotation Yrotation
                        End Site
                        {
                          OFFSET 0 0 0
                        }
                      }
                    }
                  }
                }
                JOINT Character1_RightHandRing1
                {
                  OFFSET -8.89383 0.37992 -0.792377
                  CHANNELS 3 Zrotation Xrotation Yrotation
                  JOINT Character1_RightHandRing2
                  {
                    OFFSET -4.53776 0 0.000123053
                    CHANNELS 3 Zrotation Xrotation Yrotation
                    JOINT Character1_RightHandRing3
                    {
                      OFFSET -2.30453 0 6.24935e-005
                      CHANNELS 3 Zrotation Xrotation Yrotation
                      JOINT Character1_RightHandRing4
                      {
                        OFFSET -1.92335 0 5.21553e-005
                        CHANNELS 3 Zrotation Xrotation Yrotation
                        End Site
                        {
                          OFFSET 0 0 0
                        }
                      }
                    }
                  }
                }
                JOINT Character1_RightHandPinky1
                {
                  OFFSET -8.8825 -0.313028 -2.48957
                  CHANNELS 3 Zrotation Xrotation Yrotation
                  JOINT Character1_RightHandPinky2
                  {
                    OFFSET -3.0478 0 8.26503e-005
                    CHANNELS 3 Zrotation Xrotation Yrotation
                    JOINT Character1_RightHandPinky3
                    {
                      OFFSET -1.9769 0 5.36133e-005
                      CHANNELS 3 Zrotation Xrotation Yrotation
                      JOINT Character1_RightHandPinky4
                      {
                        OFFSET -1.66864 0 4.52451e-005
                        CHANNELS 3 Zrotation Xrotation Yrotation
                        End Site
                        {
                          OFFSET 0 0 0
                        }
                      }
                    }
                  }
                }
              }
            }
          }
        }
        JOINT Character1_Neck
        {
          OFFSET 0 12.6667 0
          CHANNELS 3 Zrotation Xrotation Yrotation
          JOINT Character1_Head
          {
            OFFSET 0 20 0
            CHANNELS 3 Zrotation Xrotation Yrotation
            End Site
            {
              OFFSET 0 0 0
            }
          }
        }
      }
    }
  }
  JOINT TorsoBox
  {
    OFFSET 0 6.37996 0.149191
    CHANNELS 3 Zrotation Xrotation Yrotation
    End Site
    {
      OFFSET 0 0 0
    }
  }
}
MOTION
Frames:	4
Frame Time:	0.00833333
-292.503 110.765 283.046 -3.95205 6.16158 -2.24349 28.4158 -50.9982 33.7366 0.00345602 52.1926 -0.0440294 -6.1623 28.7587 -4.93411 -0.0542806 -1.95269 0.00259047 -9.47669e-016 0 -5.68601e-015 1.18459e-016 3.29001e-016 -0 2.94811e-015 9.94491e-015 4.42217e-015 -4.26541 -54.3672 -7.37326 0.00791427 54.6325 0.180301 15.663 29.0974 -1.78326 0.272298 -9.66838 0.0210641 -9.47366e-016 -3.60901e-015 0.00480039 1.06613e-015 -2.63201e-015 1.89534e-015 1.47406e-015 0 7.37028e-016 1.46168 13.2129 1.60443 -1.3424 11.2203 -0.415362 -0.489438 0.682424 0.0742024 16.8535 -0.962931 -3.99838 -40.6974 -4.68899 6.97055 -0.0138998 -1.74052e-005 -48.1711 22.4781 6.23385 -7.1985 -3.69096e-005 -1.03628e-005 2.35394e-006 -0.000285491 1.97622e-005 2.03647e-005 0.000287745 -6.17458e-006 -2.95377e-005 -2.73123e-006 6.07768e-006 4.97055e-006 -0.000345031 -3.63239e-005 -1.99999 -1.87854e-006 4.10117e-007 4.39574e-006 6.55678e-006 5.6052e-006 7.7336e-006 -1.44617e-005 2.38596e-005 4.63416e-006 -2.73003e-005 -9.30025e-007 -0.00356354 -0.000104008 -3.27675e-006 -2.87662e-006 8.83856e-006 6.28062e-007 3.74229e-006 2.3031e-005 1.53505e-005 1.85515e-005 -5.11664e-005 -1.26728e-006 -0.00358161 -5.70542e-005 -4.58753e-006 3.57082e-005 1.43852e-005 -2.30254e-005 8.14128e-006 -5.28912e-006 3.62342e-005 -5.91285e-006 0.000720812 -1.84362e-005 -4.27934e-006 -0.000133799 -1.7389e-006 4.32201e-006 -8.07974e-007 -3.61485e-006 -2.24134e-005 1.2924e-005 -3.05057e-006 2.0191e-005 -17.8812 -2.48312 7.74394 45.2988 -7.37098 -14.2663 4.43957e-005 2.28795e-005 36.0271 -10.1379 12.3964 -3.18552 1.50763e-007 -1.99484e-006 2.34056e-006 -0.000565067 -1.49017e-006 1.50629e-005 0.000201051 -2.04604e-006 -8.10723e-007 -1.9563e-005 -3.15358e-006 -1.99232e-005 -3.44065e-006 -7.17425e-006 -2.00006 0.000114164 2.36713e-006 -5.19865e-006 -1.82053e-005 9.23803e-007 -6.88957e-006 -3.52333e-006 -6.68276e-006 -1.16753e-006 4.64553e-006 -4.09211e-006 -2.00006 0.000189022 1.08642e-005 -1.14554e-006 -2.00018e-007 -9.22249e-007 1.69523e-005 -1.21731e-005 -1.40114e-005 -1.95258e-005 2.16068e-005 -1.05289e-005 -2.00006 2.39629e-006 1.57635e-005 1.53054e-005 4.53234e-007 -2.09394e-005 -8.08167e-006 -2.94498e-005 -4.68533e-006 -1.83337e-005 0.00121992 -1.55134e-005 -2.00005 0.000210546 5.18807e-006 4.65516e-008 1.07832e-006 -2.08186e-006 -2.35962e-006 -2.93393e-006 3.68254e-006 -8.79692e-006 -1.17754 -4.96028 1.17426 4.41723 -19.991 4.26519 1.63945e-015 -2.92605e-015 7.71506e-016 
-292.443 109.246 284.388 -3.78682 5.844 -2.37198 26.5964 -49.473 32.4245 0.000209699 48.6136 -0.0334013 -6.17974 29.9257 -5.38137 -0.0606643 -2.18044 0.000792684 1.89534e-015 7.21803e-015 -0 -1.18459e-016 0 5.68601e-015 2.94811e-015 0 4.42217e-015 -4.0369 -52.5791 -6.951 0.017301 51.1688 0.159777 15.7078 29.7645 -2.63022 0.275913 -9.79005 0.022264 -1.89534e-015 0 0.00480039 1.65842e-015 0 9.47669e-016 -1.47406e-015 0 -0 1.464 12.8907 1.59462 -1.35789 11.2092 -0.326285 -0.561974 0.717162 0.0270921 16.3171 -0.376073 -3.66752 -42.0976 -4.10133 7.67557 -0.0148446 -1.74994e-005 -47.8928 22.5473 6.02943 -7.11599 -3.69096e-005 -1.03628e-005 2.35394e-006 -0.000285491 1.97622e-005 2.03647e-005 0.000287745 -6.17458e-006 -2.95377e-005 -2.73123e-006 6.07768e-006 4.97055e-006 -0.000345031 -3.63239e-005 -1.99999 -1.87854e-006 4.10117e-007 4.39574e-006 6.55678e-006 5.6052e-006 7.7336e-006 -1.44617e-005 2.38596e-005 4.63416e-006 -2.73003e-005 -9.30025e-007 -0.00356354 -0.000104008 -3.27675e-006 -2.87662e-006 8.83856e-006 6.28062e-007 3.74229e-006 2.3031e-005 1.53505e-005 1.85515e-005 -5.11664e-005 -1.26728e-006 -0.00358161 -5.70542e-005 -4.58753e-006 3.57082e-005 1.43852e-005 -2.30254e-005 8.14128e-006 -5.28912e-006 3.62342e-005 -5.91285e-006 0.000720812 -1.84362e-005 -4.27934e-006 -0.000133799 -1.7389e-006 4.32201e-006 -8.07974e-007 -3.61485e-006 -2.24134e-005 1.2924e-005 -3.05057e-006 2.0191e-005 -17.626 -2.04676 7.48339 46.7455 -7.36219 -14.8654 4.41838e-005 2.27239e-005 36.5595 -10.5827 11.5034 -3.33402 1.50763e-007 -1.99484e-006 2.34056e-006 -0.000565067 -1.49017e-006 1.50629e-005 0.000201051 -2.04604e-006 -8.10723e-007 -1.9563e-005 -3.15358e-006 -1.99232e-005 -3.44065e-006 -7.17425e-006 -2.00006 0.000114164 2.36713e-006 -5.19865e-006 -1.82053e-005 9.23803e-007 -6.88957e-006 -3.52333e-006 -6.68276e-006 -1.16753e-006 4.64553e-006 -4.09211e-006 -2.00006 0.000189022 1.08642e-005 -1.14554e-006 -2.00018e-007 -9.22249e-007 1.69523e-005 -1.21731e-005 -1.40114e-005 -1.95258e-005 2.16068e-005 -1.05289e-005 -2.00006 2.39629e-006 1.57635e-005 1.53054e-005 4.53235e-007 -2.09394e-005 -8.08167e-006 -2.94498e-005 -4.68533e-006 -1.83337e-005 0.00121992 -1.55134e-005 -2.00005 0.000210546 5.18807e-006 4.65516e-008 1.07832e-006 -2.08186e-006 -2.35962e-006 -2.93393e-006 3.68254e-006 -8.79692e-006 -1.24399 -4.90154 1.17835 4.29634 -19.8584 4.25686 -9.64383e-017 0 5.14338e-016 
-292.38 107.726 285.73 -3.62305 5.52569 -2.50043 24.7828 -47.9422 31.1166 -0.000337582 45.0189 -0.0236177 -6.20282 31.1016 -5.82624 -0.0670776 -2.40817 -0.00113837 9.47669e-016 7.21803e-015 -1.89534e-015 5.92293e-017 -1.64501e-016 -0 2.94811e-015 0 4.42217e-015 -3.81137 -50.807 -6.53029 0.0196575 47.7167 0.140667 15.7567 30.4342 -3.47794 0.282434 -10.0127 0.0240624 -9.47971e-016 3.60901e-015 0.00480039 -6.21907e-016 0 -0 1.47406e-015 0 1.47406e-015 1.46632 12.5685 1.58481 -1.37338 11.1981 -0.237211 -0.634494 0.751913 -0.0200238 15.7736 0.211254 -3.3371 -43.5301 -3.59668 8.38239 -0.0157857 -1.75821e-005 -47.6476 22.6172 5.82479 -7.03372 -3.69096e-005 -1.03628e-005 2.35394e-006 -0.000285491 1.97622e-005 2.03647e-005 0.000287745 -6.17458e-006 -2.95377e-005 -2.73123e-006 6.07768e-006 4.97055e-006 -0.000345031 -3.63239e-005 -1.99999 -1.87854e-006 4.10117e-007 4.39574e-006 6.55678e-006 5.6052e-006 7.7336e-006 -1.44617e-005 2.38596e-005 4.63416e-006 -2.73003e-005 -9.30025e-007 -0.00356354 -0.000104008 -3.27675e-006 -2.87662e-006 8.83856e-006 6.28062e-007 3.74229e-006 2.3031e-005 1.53505e-005 1.85515e-005 -5.11664e-005 -1.26728e-006 -0.00358161 -5.70542e-005 -4.58753e-006 3.57082e-005 1.43852e-005 -2.30254e-005 8.14128e-006 -5.28912e-006 3.62342e-005 -5.91285e-006 0.000720812 -1.84362e-005 -4.27934e-006 -0.000133799 -1.7389e-006 4.32201e-006 -8.07974e-007 -3.61485e-006 -2.24134e-005 1.2924e-005 -3.05057e-006 2.0191e-005 -17.3666 -1.6098 7.22343 48.2003 -7.43376 -15.4325 4.3975e-005 2.25675e-005 37.0878 -11.034 10.6094 -3.48027 1.50763e-007 -1.99484e-006 2.34056e-006 -0.000565067 -1.49017e-006 1.50629e-005 0.000201051 -2.04604e-006 -8.10723e-007 -1.9563e-005 -3.15358e-006 -1.99232e-005 -3.44065e-006 -7.17425e-006 -2.00006 0.000114164 2.36713e-006 -5.19865e-006 -1.82053e-005 9.23803e-007 -6.88957e-006 -3.52333e-006 -6.68276e-006 -1.16753e-006 4.64553e-006 -4.09211e-006 -2.00006 0.000189022 1.08642e-005 -1.14554e-006 -2.00018e-007 -9.22249e-007 1.69523e-005 -1.21731e-005 -1.40114e-005 -1.95258e-005 2.16068e-005 -1.05289e-005 -2.00006 2.39629e-006 1.57635e-005 1.53054e-005 4.53234e-007 -2.09394e-005 -8.08167e-006 -2.94498e-005 -4.68533e-006 -1.83337e-005 0.00121992 -1.55134e-005 -2.00005 0.000210546 5.18807e-006 4.65516e-008 1.07832e-006 -2.08186e-006 -2.35962e-006 -2.93393e-006 3.68254e-006 -8.79692e-006 -1.31051 -4.8428 1.18245 4.17546 -19.7257 4.24853 -6.42922e-016 1.9507e-015 5.14338e-016 
-292.317 106.204 287.073 -3.46072 5.20669 -2.62885 22.9766 -46.4034 29.8141 0.000147102 41.4057 -0.0146821 -6.23228 32.2876 -6.2682 -0.0735213 -2.63589 -0.00320631 1.89534e-015 -3.60901e-015 1.89534e-015 -2.36917e-016 -6.58002e-016 -1.89534e-015 1.47406e-015 0 1.47406e-015 -3.59609 -49.0366 -6.11701 0.0219252 44.2621 0.122736 15.8098 31.1068 -4.32675 0.294448 -10.4267 0.0268804 1.89594e-015 -7.21803e-015 0.00480039 -6.95944e-016 -8.22503e-017 -0 7.37028e-016 1.49174e-014 -7.37028e-016 1.46863 12.2463 1.575 -1.38888 11.1869 -0.148141 -0.706998 0.786679 -0.0671491 15.2229 0.798958 -3.00699 -45.0041 -3.16172 9.06745 -0.0167213 -1.76681e-005 -47.3917 22.6876 5.61996 -6.95169 -3.69096e-005 -1.03628e-005 2.35394e-006 -0.000285491 1.97622e-005 2.03647e-005 0.000287745 -6.17458e-006 -2.95377e-005 -2.73123e-006 6.07768e-006 4.97055e-006 -0.000345031 -3.63239e-005 -1.99999 -1.87854e-006 4.10117e-007 4.39574e-006 6.55678e-006 5.6052e-006 7.7336e-006 -1.44617e-005 2.38596e-005 4.63416e-006 -2.73003e-005 -9.30025e-007 -0.00356354 -0.000104008 -3.27675e-006 -2.87662e-006 8.83856e-006 6.28062e-007 3.74229e-006 2.3031e-005 1.53505e-005 1.85515e-005 -5.11664e-005 -1.26728e-006 -0.00358161 -5.70542e-005 -4.58753e-006 3.57082e-005 1.43852e-005 -2.30254e-005 8.14128e-006 -5.28912e-006 3.62342e-005 -5.91285e-006 0.000720812 -1.84362e-005 -4.27934e-006 -0.000133799 -1.7389e-006 4.32201e-006 -8.07974e-007 -3.61485e-006 -2.24134e-005 1.2924e-005 -3.05057e-006 2.0191e-005 -17.1031 -1.17231 6.96401 49.6261 -7.64195 -15.9656 4.37671e-005 2.24088e-005 37.6176 -11.4916 9.71446 -3.62448 1.50763e-007 -1.99484e-006 2.34056e-006 -0.000565067 -1.49017e-006 1.50629e-005 0.000201051 -2.04604e-006 -8.10723e-007 -1.9563e-005 -3.15358e-006 -1.99232e-005 -3.44065e-006 -7.17425e-006 -2.00006 0.000114164 2.36713e-006 -5.19865e-006 -1.82053e-005 9.23803e-007 -6.88957e-006 -3.52333e-006 -6.68276e-006 -1.16753e-006 4.64553e-006 -4.09211e-006 -2.00006 0.000189022 1.08642e-005 -1.14554e-006 -2.00018e-007 -9.22249e-007 1.69523e-005 -1.21731e-005 -1.40114e-005 -1.95258e-005 2.16068e-005 -1.05289e-005 -2.00006 2.39629e-006 1.57635e-005 1.53054e-005 4.53234e-007 -2.09394e-005 -8.08167e-006 -2.94498e-005 -4.68533e-006 -1.83337e-005 0.00121992 -1.55134e-005 -2.00005 0.000210546 5.18807e-006 4.65516e-008 1.07832e-006 -2.08186e-006 -2.35962e-006 -2.93393e-006 3.68254e-006 -8.79692e-006 -1.37706 -4.78396 1.18656 4.05457 -19.593 4.24019 5.7863e-016 1.9507e-015 -0 
